<svg width="512" height="288" viewBox="0 0 512 288" fill="none" xmlns="http://www.w3.org/2000/svg">
  <rect width="512" height="288" rx="20" fill="#0b1220"/>
  <g filter="url(#glow)">
    <circle cx="420" cy="86" r="42" fill="#22d3ee" fill-opacity="0.15"/>
  </g>
  <rect x="48" y="64" width="320" height="160" rx="10" fill="#0f172a" stroke="#1f2937"/>
  <rect x="58" y="80" width="120" height="10" rx="5" fill="#34d399"/>
  <rect x="58" y="100" width="240" height="10" rx="5" fill="#22d3ee"/>
  <rect x="58" y="120" width="200" height="10" rx="5" fill="#94a3b8"/>
  <rect x="58" y="140" width="260" height="10" rx="5" fill="#94a3b8"/>
  <rect x="58" y="160" width="180" height="10" rx="5" fill="#94a3b8"/>
  <rect x="58" y="180" width="220" height="10" rx="5" fill="#94a3b8"/>
  <g transform="translate(388,54)">
    <path d="M36 0c9.94 0 18 8.06 18 18 0 7.43-4.42 13.82-10.78 16.64L40 44h-8l-3.22-9.36C22.42 31.82 18 25.43 18 18 18 8.06 26.06 0 36 0z" fill="#22d3ee"/>
    <rect x="24" y="48" width="24" height="6" rx="3" fill="#22d3ee"/>
  </g>
  <g transform="translate(372,192)">
    <rect x="0" y="0" width="96" height="32" rx="16" fill="#10b981"/>
    <text x="48" y="21" font-family="Inter,system-ui,Arial" font-size="14" text-anchor="middle" fill="#0b1220">Explain</text>
  </g>
  <defs>
    <filter id="glow" x="348" y="14" width="144" height="144" filterUnits="userSpaceOnUse" color-interpolation-filters="sRGB">
      <feGaussianBlur stdDeviation="18"/>
    </filter>
  </defs>
</svg>
