<svg width="512" height="320" viewBox="0 0 512 320" xmlns="http://www.w3.org/2000/svg" fill="none">
  <defs>
    <linearGradient id="g" x1="0" y1="0" x2="1" y2="1">
      <stop offset="0%" stop-color="#6366F1"/>
      <stop offset="100%" stop-color="#22D3EE"/>
    </linearGradient>
  </defs>
  <rect x="0" y="0" width="512" height="320" rx="16" fill="#0B0F19"/>
  <rect x="24" y="24" width="464" height="208" rx="12" fill="#0F1629" stroke="#2A3348"/>
  <rect x="44" y="44" width="200" height="168" rx="8" fill="#131B31" stroke="#2A3348"/>
  <circle cx="88" cy="88" r="18" fill="url(#g)" opacity="0.9"/>
  <circle cx="150" cy="130" r="28" fill="#1E293B"/>
  <rect x="112" y="156" width="96" height="36" rx="6" fill="#1F2937"/>

  <g transform="translate(264,52)">
    <rect x="0" y="0" width="200" height="22" rx="6" fill="#111827"/>
    <rect x="0" y="34" width="200" height="22" rx="6" fill="#111827"/>
    <rect x="0" y="68" width="200" height="22" rx="6" fill="#111827"/>
    <rect x="0" y="102" width="160" height="22" rx="6" fill="#111827"/>
  </g>

  <g transform="translate(24,248)">
    <rect x="0" y="0" width="240" height="48" rx="10" fill="#0F1629" stroke="#2A3348"/>
    <text x="20" y="30" font-family="Inter, system-ui, Arial" font-size="16" fill="#D1D5DB">Image Captioning</text>
  </g>

  <g transform="translate(280,246)">
    <rect x="0" y="0" width="208" height="52" rx="26" fill="url(#g)"/>
    <text x="18" y="33" font-family="Inter, system-ui, Arial" font-size="16" fill="#0B0F19">Generate Caption</text>
  </g>
</svg>
